<?xml version="1.0" encoding="utf-8"?>

<!DOCTYPE svg PUBLIC "-//W3C//DTD SVG 1.1//EN" "http://www.w3.org/Graphics/SVG/1.1/DTD/svg11.dtd">
<!-- Uploaded to: SVG Repo, www.svgrepo.com, Generator: SVG Repo Mixer Tools -->
<svg height="800px" width="800px" version="1.1" id="_x32_" xmlns="http://www.w3.org/2000/svg" xmlns:xlink="http://www.w3.org/1999/xlink" 
	 viewBox="0 0 512 512"  xml:space="preserve">
<style type="text/css">
	.st0{fill:#000000;}
</style>
<g>
	<path class="st0" d="M480.909,109.715H31.091C13.929,109.715,0,123.644,0,140.806v213.098c0,26.728,21.653,48.38,48.38,48.38
		H463.62c26.728,0,48.38-21.653,48.38-48.38V140.806C512,123.644,498.071,109.715,480.909,109.715z M329.145,158.475h48.76v48.759
		h-48.76V158.475z M329.145,231.615h48.76v48.769h-48.76V231.615z M255.995,158.475h48.77v48.759h-48.77V158.475z M255.995,231.615
		h48.77v48.769h-48.77V231.615z M182.855,158.475h48.76v48.759h-48.76V158.475z M182.855,231.615h48.76v48.769h-48.76V231.615z
		 M109.715,158.475h48.76v48.759h-48.76V158.475z M109.715,231.615h48.76v48.769h-48.76V231.615z M85.335,353.525h-48.76v-48.759
		h48.76V353.525z M85.335,280.385h-48.76v-48.769h48.76V280.385z M85.335,207.235h-48.76v-48.759h48.76V207.235z M402.285,353.525
		h-292.57v-48.759h292.57V353.525z M475.425,353.525h-48.761v-48.759h48.761V353.525z M475.425,280.385h-73.14V158.475h73.14
		V280.385z"/>
</g>
</svg>